<svg xmlns="http://www.w3.org/2000/svg" xmlns:xlink="http://www.w3.org/1999/xlink" width="48" zoomAndPan="magnify" viewBox="0 0 36 36.000001" height="48" preserveAspectRatio="xMidYMid meet" version="1.0"><defs><clipPath id="38d94ba96e"><path d="M 5 2 L 32 2 L 32 32 L 5 32 Z M 5 2 " clip-rule="nonzero"/></clipPath><clipPath id="0f682fd94d"><path d="M 26.613281 35.628906 L 0.78125 27.765625 L 9.496094 -0.855469 L 35.324219 7.007812 Z M 26.613281 35.628906 " clip-rule="nonzero"/></clipPath><clipPath id="125f63f621"><path d="M 26.613281 35.628906 L 0.78125 27.765625 L 9.496094 -0.855469 L 35.324219 7.007812 Z M 26.613281 35.628906 " clip-rule="nonzero"/></clipPath></defs><g clip-path="url(#38d94ba96e)"><g clip-path="url(#0f682fd94d)"><g clip-path="url(#125f63f621)"><path fill="#ffffff" d="M 5.117188 12.46875 L 10.417969 14.082031 C 10.417969 14.074219 10.421875 14.0625 10.421875 14.054688 C 11.726562 9.777344 16.25 7.363281 20.527344 8.667969 C 24.804688 9.96875 27.214844 14.492188 25.914062 18.769531 C 24.613281 23.046875 20.089844 25.460938 15.8125 24.15625 C 15.136719 23.953125 14.511719 23.664062 13.9375 23.3125 L 14.5 21.464844 L 6.242188 24.191406 L 11.578125 31.054688 L 12.28125 28.746094 C 12.894531 29.039062 13.535156 29.289062 14.207031 29.492188 C 21.421875 31.6875 29.050781 27.621094 31.246094 20.40625 C 33.441406 13.191406 29.371094 5.566406 22.160156 3.367188 C 14.945312 1.171875 7.316406 5.242188 5.121094 12.453125 C 5.117188 12.460938 5.117188 12.464844 5.117188 12.46875 " fill-opacity="1" fill-rule="nonzero"/></g></g></g></svg>