<svg xmlns="http://www.w3.org/2000/svg" xmlns:xlink="http://www.w3.org/1999/xlink" width="48" zoomAndPan="magnify" viewBox="0 0 36 36.000001" height="48" preserveAspectRatio="xMidYMid meet" version="1.0"><defs><clipPath id="95181cca36"><path d="M 0.488281 0 L 35.511719 0 L 35.511719 35.027344 L 0.488281 35.027344 Z M 0.488281 0 " clip-rule="nonzero"/></clipPath><clipPath id="0b3bf12c86"><path d="M 37.4375 22.140625 L 15.046875 37.226562 L -1.671875 12.417969 L 20.71875 -2.671875 Z M 37.4375 22.140625 " clip-rule="nonzero"/></clipPath><clipPath id="535b1024e9"><path d="M 4 4 L 33 4 L 33 33 L 4 33 Z M 4 4 " clip-rule="nonzero"/></clipPath><clipPath id="a1f9744f4a"><path d="M 37.4375 22.140625 L 15.046875 37.226562 L -1.671875 12.417969 L 20.71875 -2.671875 Z M 37.4375 22.140625 " clip-rule="nonzero"/></clipPath><clipPath id="262e47fcc3"><path d="M 20.914062 -2.378906 L -1.472656 12.710938 L 15.246094 37.519531 L 37.636719 22.433594 Z M 20.914062 -2.378906 " clip-rule="nonzero"/></clipPath><clipPath id="448d05f710"><rect x="0" width="36" y="0" height="36"/></clipPath></defs><g clip-path="url(#95181cca36)"><g clip-path="url(#0b3bf12c86)"><g transform="matrix(1, 0, 0, 1, 0.000000000000000056, 0.000000000000010582)"><g clip-path="url(#448d05f710)"><g clip-path="url(#535b1024e9)"><g clip-path="url(#a1f9744f4a)"><g clip-path="url(#262e47fcc3)"><path fill="#ffffff" d="M 7.152344 26.066406 L 11.75 22.96875 C 11.753906 22.976562 11.757812 22.984375 11.761719 22.992188 C 14.261719 26.699219 19.292969 27.679688 23 25.183594 C 26.710938 22.683594 27.691406 17.652344 25.191406 13.945312 C 22.691406 10.234375 17.660156 9.253906 13.953125 11.753906 C 13.367188 12.148438 12.851562 12.605469 12.40625 13.109375 L 13.488281 14.714844 L 4.796875 14.527344 L 7.886719 6.402344 L 9.234375 8.402344 C 9.734375 7.945312 10.273438 7.515625 10.855469 7.125 C 17.109375 2.910156 25.59375 4.5625 29.808594 10.816406 C 34.023438 17.070312 32.367188 25.554688 26.113281 29.769531 C 19.863281 33.984375 11.375 32.332031 7.160156 26.078125 C 7.160156 26.074219 7.15625 26.070312 7.152344 26.066406 " fill-opacity="1" fill-rule="nonzero"/></g></g></g></g></g></g></g></svg>