<svg xmlns="http://www.w3.org/2000/svg" xmlns:xlink="http://www.w3.org/1999/xlink" width="500" zoomAndPan="magnify" viewBox="0 0 375 374.999991" height="500" preserveAspectRatio="xMidYMid meet" version="1.0"><defs><clipPath id="b82bf265f4"><path d="M 37.5 201 L 334 201 L 334 342.210938 L 37.5 342.210938 Z M 37.5 201 " clip-rule="nonzero"/></clipPath><clipPath id="90a76a5bb2"><path d="M 40 32.460938 L 337.5 32.460938 L 337.5 175 L 40 175 Z M 40 32.460938 " clip-rule="nonzero"/></clipPath></defs><rect x="-37.5" width="450" fill="#ffffff" y="-37.499999" height="449.999989" fill-opacity="1"/><rect x="-37.5" width="450" fill="#ffffff" y="-37.499999" height="449.999989" fill-opacity="1"/><g clip-path="url(#b82bf265f4)"><path fill="#e94566" d="M 103.535156 249.574219 C 99.980469 251.070312 95.457031 247.335938 92.273438 251.710938 C 94.535156 254.617188 96.796875 257.523438 99.058594 260.433594 C 110.144531 274.796875 123.867188 285.953125 139.535156 294.5625 C 146.351562 298.3125 153.832031 300.636719 160.988281 303.570312 C 171.007812 307.695312 181.484375 307.214844 191.585938 309.632812 C 195.140625 310.484375 199.066406 310.074219 202.78125 309.753906 C 211.710938 308.980469 221.011719 309.261719 229.453125 306.683594 C 245.28125 301.859375 260.464844 295.480469 274.128906 285.199219 C 289.332031 273.761719 301.851562 260.050781 311.125 243.613281 C 317.035156 233.136719 322.808594 222.09375 323.105469 209.226562 C 323.160156 206.835938 324.683594 204.058594 326.359375 202.296875 C 327.363281 201.234375 330.234375 201.160156 331.796875 201.808594 C 332.898438 202.257812 333.917969 204.714844 333.796875 206.195312 C 333.257812 212.976562 332.441406 219.71875 331.414062 226.433594 C 331.117188 228.371094 329.820312 230.171875 328.921875 232.003906 C 328.410156 233.039062 327.128906 234.125 327.28125 234.988281 C 328.65625 242.925781 324.023438 249.308594 321.640625 256.046875 C 318.878906 263.871094 314.535156 271.277344 309.984375 278.242188 C 301.277344 291.535156 291.332031 303.835938 278.347656 313.128906 C 270.421875 318.804688 262.8125 324.820312 253.167969 327.742188 C 249.007812 329 244.769531 331.324219 240.894531 333.464844 C 237.066406 335.574219 232.976562 336.804688 228.617188 337.15625 C 227.753906 337.238281 226.804688 337.210938 226.035156 337.570312 C 214.296875 343.191406 201.617188 341.714844 189.308594 342.28125 C 180.082031 342.707031 170.4375 342.777344 161.585938 340.515625 C 145.792969 336.46875 129.980469 332.4375 115.511719 323.632812 C 100.914062 314.734375 87.410156 304.738281 76.382812 291.722656 C 71.453125 285.90625 65.589844 280.488281 63.40625 272.25 C 61.945312 266.757812 57.488281 266.613281 53.824219 271.203125 C 50.882812 274.882812 48.160156 278.738281 45.226562 282.421875 C 43.878906 284.117188 42.140625 284.078125 40.789062 282.421875 C 39.496094 280.835938 37.824219 279.121094 37.519531 277.253906 C 37.257812 275.636719 39.035156 273.792969 39.296875 271.957031 C 40.132812 266.144531 41.203125 260.285156 41.195312 254.441406 C 41.195312 248.109375 41.824219 242.109375 43.957031 236.128906 C 45.027344 233.132812 44.789062 229.667969 45.449219 226.492188 C 46.695312 220.519531 47.992188 214.539062 49.605469 208.679688 C 50.378906 205.859375 55.15625 205.304688 58.902344 207.386719 C 62.429688 209.355469 65.851562 211.523438 69.375 213.496094 C 83.191406 221.253906 97.007812 228.976562 110.828125 236.671875 C 112.101562 237.386719 113.285156 238.289062 114.570312 238.960938 C 117.015625 240.253906 117.914062 242.335938 117.078125 244.898438 C 116.21875 247.535156 114.734375 249.691406 111.496094 249.589844 C 108.890625 249.511719 106.285156 249.574219 103.535156 249.574219 Z M 191.027344 333.5 C 202.960938 330.789062 216.871094 333.0625 229.839844 327.363281 C 239.070312 323.3125 249.191406 321.097656 257.945312 316.207031 C 275.847656 306.191406 290.894531 292.34375 303.46875 275.804688 C 304.332031 274.59375 304.96875 273.277344 305.382812 271.851562 C 305.894531 270.234375 306.082031 268.507812 306.40625 266.832031 C 304.769531 267.78125 303.019531 268.574219 301.535156 269.738281 C 300.402344 270.617188 299.652344 272 298.65625 273.070312 C 284.828125 288.027344 270.039062 301.5 250.648438 308.804688 C 245.769531 310.644531 240.507812 311.515625 236.007812 313.71875 C 229.683594 316.816406 223.269531 317.324219 216.628906 317.808594 C 212.578125 318.105469 208.550781 318.566406 204.492188 318.851562 C 192.863281 319.683594 181.328125 318.285156 170.027344 316.097656 C 162.183594 314.578125 154.714844 310.953125 147.132812 308.121094 C 130.945312 302.070312 117.242188 291.96875 104.527344 280.339844 C 95.40625 271.996094 88.378906 261.832031 81.40625 251.636719 C 78.65625 247.609375 79.328125 245.246094 83.871094 243.558594 C 85.355469 243.007812 87.199219 243.539062 88.863281 243.390625 C 91.386719 243.171875 94.03125 243.191406 96.367188 242.359375 C 98.480469 241.605469 98.203125 239.542969 96.742188 238.085938 C 95.875 237.28125 94.863281 236.730469 93.714844 236.441406 C 81.726562 233.210938 71.964844 225.539062 61.410156 219.507812 C 56.300781 216.601562 55.652344 217.03125 54.769531 223.246094 C 53.253906 233.738281 51.308594 244.191406 49.453125 254.644531 C 48.953125 257.457031 46.082031 261.253906 48.835938 262.804688 C 52.5 264.871094 53.769531 260.367188 55.496094 257.707031 C 58.566406 252.972656 62.367188 253.613281 65.09375 258.679688 C 70.90625 269.480469 76.953125 280.078125 85.875 288.734375 C 93.214844 295.863281 101.054688 302.222656 108.996094 308.613281 C 119.9375 317.414062 132.546875 321.714844 145.097656 326.6875 C 159.503906 332.394531 174.691406 331.597656 191.027344 333.5 Z M 191.027344 333.5 " fill-opacity="1" fill-rule="nonzero"/></g><g clip-path="url(#90a76a5bb2)"><path fill="#e94566" d="M 189.878906 32.472656 C 198.800781 32.933594 205.476562 33.179688 212.148438 33.660156 C 216.746094 33.984375 221.515625 33.84375 225.390625 37.179688 C 225.835938 37.597656 226.363281 37.828125 226.972656 37.875 C 233.585938 37.644531 239.144531 40.820312 245.046875 43.234375 C 256.027344 47.726562 266.441406 53.164062 275.695312 60.679688 C 282.476562 66.191406 289.632812 71.519531 295.292969 78.121094 C 302.027344 85.972656 310.253906 92.949219 313.128906 103.808594 C 314.261719 108.082031 319.226562 108.617188 321.851562 104.976562 C 324.253906 101.640625 326.484375 98.160156 328.589844 94.621094 C 329.992188 92.269531 332.011719 91.097656 334.40625 91.714844 C 337.097656 92.398438 337.90625 95.105469 337.3125 97.457031 C 334.664062 108.117188 337.6875 119.46875 333.4375 129.964844 C 332.414062 132.492188 332.027344 135.117188 332.28125 137.832031 C 333.4375 147.964844 327.390625 156.53125 326.726562 166.257812 C 326.507812 169.507812 321.695312 170.574219 318.054688 168.398438 C 311.878906 164.71875 305.886719 160.699219 299.613281 157.203125 C 288.273438 150.890625 276.78125 144.859375 265.371094 138.703125 C 264.59375 138.292969 263.839844 137.839844 263.109375 137.347656 C 261.019531 135.917969 257.679688 134.871094 258.65625 131.695312 C 259.59375 128.652344 261.828125 125.910156 265.5625 125.777344 C 268.753906 125.660156 271.957031 125.777344 275.152344 125.730469 C 277.171875 125.703125 279.265625 125.90625 281.183594 125.40625 C 283.394531 124.84375 284.800781 123.601562 282.636719 121.03125 C 272.464844 108.941406 261.941406 97.371094 249.011719 88.082031 C 240.957031 82.300781 232.382812 77.375 223.375 74.347656 C 215.445312 71.679688 207.871094 66.234375 198.691406 67.84375 C 196.789062 68.167969 194.65625 67.605469 192.699219 67.132812 C 182.121094 64.570312 171.585938 63.921875 160.976562 67.085938 C 158.789062 67.730469 156.375 67.554688 154.074219 67.851562 C 150.917969 68.253906 147.613281 68.28125 144.648438 69.28125 C 131.257812 73.78125 117.816406 78.433594 106.335938 87.0625 C 91.378906 98.304688 77.058594 110.320312 68.285156 127.710938 C 66.839844 130.578125 64.703125 133.070312 63.21875 135.917969 C 58.675781 144.640625 54.445312 153.503906 53.152344 163.496094 C 52.855469 165.800781 52.464844 168.175781 51.605469 170.300781 C 49.992188 174.316406 47.964844 175.144531 44.058594 173.925781 C 40.675781 172.886719 39.335938 170.871094 41.261719 168.054688 C 44.816406 162.851562 45.105469 157.070312 45.632812 151.179688 C 46.023438 146.828125 45.710938 142.214844 49.046875 138.632812 C 49.597656 138.042969 49.839844 137.015625 49.929688 136.148438 C 51.386719 121.96875 58.765625 110.109375 65.4375 98.355469 C 72.683594 85.605469 82.671875 74.601562 93.773438 65.011719 C 103.296875 56.78125 114.265625 50.609375 125.429688 45.148438 C 132.046875 41.921875 139.589844 40.628906 146.75 38.625 C 152.851562 36.917969 158.9375 34.796875 165.164062 34.011719 C 174.105469 32.925781 183.121094 32.859375 189.878906 32.472656 Z M 190.617188 40.160156 C 176.945312 39.511719 162.476562 43.207031 147.929688 47.480469 C 129.242188 52.972656 112.277344 61.464844 97.117188 73.84375 C 85.433594 83.382812 75.59375 94.558594 68.480469 108.082031 C 68.050781 108.90625 68.554688 110.246094 68.625 111.339844 C 69.59375 110.917969 70.835938 110.75 71.460938 110.023438 C 76.019531 104.703125 80.027344 98.820312 84.988281 93.949219 C 108.433594 70.914062 136.71875 58.652344 168.972656 55.699219 C 172.988281 55.335938 177.246094 54.410156 181.03125 55.304688 C 193.128906 58.214844 205.902344 57.488281 217.582031 62.703125 C 223.351562 65.289062 229.746094 66.484375 235.320312 69.386719 C 250.546875 77.320312 265.007812 86.617188 276.394531 99.90625 C 282.855469 107.433594 288.671875 115.574219 294.3125 123.761719 C 297.324219 128.121094 295.175781 131.753906 289.96875 131.964844 C 288.257812 132.035156 286.527344 131.394531 284.800781 131.320312 C 283.386719 131.210938 281.996094 131.347656 280.628906 131.730469 C 277.566406 132.699219 277.074219 134.796875 279.683594 136.773438 C 281.6875 138.304688 284.171875 139.207031 286.511719 140.210938 C 288.078125 140.878906 289.949219 140.921875 291.382812 141.777344 C 298.625 146.070312 305.707031 150.652344 312.96875 154.917969 C 320.230469 159.179688 320.371094 158.980469 322.167969 150.589844 C 322.289062 150.023438 322.074219 149.390625 322.167969 148.8125 C 323.277344 141.8125 324.367188 134.804688 325.5625 127.8125 C 326.3125 123.445312 327.390625 119.125 327.992188 114.734375 C 328.152344 113.570312 327.105469 112.230469 326.613281 110.972656 C 325.398438 111.640625 323.867188 112.039062 323.058594 113.042969 C 321.769531 114.613281 321.121094 116.695312 319.941406 118.386719 C 317.222656 122.304688 314.320312 122.210938 312.140625 118.0625 C 307.46875 109.195312 302.542969 100.542969 295.625 93.226562 C 291.617188 88.988281 287.167969 84.957031 284.109375 80.054688 C 279.558594 72.753906 272.847656 68.253906 266.230469 63.664062 C 252.296875 54.003906 237.109375 47.652344 220.53125 43.636719 C 210.984375 41.347656 201.6875 40.777344 190.617188 40.160156 Z M 190.617188 40.160156 " fill-opacity="1" fill-rule="nonzero"/></g></svg>